{"title":"Ghost Rider Spirit of Vengeance 2012 TS XviD-INSPiRAL","uid":7051124,"size":1488757486,"categoryP":"video","categoryS":"movies","magnet":"?xt=urn:btih:03528f8c6736289f597e6648425343bc500086ae&amp;dn=Ghost+Rider+Spirit+of+Vengeance+2012+TS+XviD-INSPiRAL&amp;tr=udp%3A%2F%2Ftracker.openbittorrent.com%3A80&amp;tr=udp%3A%2F%2Fopen.demonii.com%3A1337&amp;tr=udp%3A%2F%2Ftracker.coppersurfer.tk%3A6969&amp;tr=udp%3A%2F%2Fexodus.desync.com%3A6969","seeders":1,"leechers":0,"uploader":"teosama","files":4,"time":1329959591,"description":"SOURCES: ILLUMINATI -\n\nuploaded to public site. TutTut.\n\n\n\nComplete name : Ghost Rider Spirit of Vengeance 2012 TS XviD - INSPiRAL.avi\nFormat : AVI\nFormat/Info : Audio Video Interleave\nFile size : 1.36 GiB\nDuration : 1h 28mn\nOverall bit rate : 2 207 Kbps\nWriting library : VirtualDub build 32842/release\n\nVideo\nID : 0\nFormat : MPEG-4 Visual\nFormat profile : Advanced Simple@L5\nFormat settings, BVOP : 2\nFormat settings, QPel : No\nFormat settings, GMC : No warppoints\nFormat settings, Matrix : Default (MPEG)\nMuxing mode : Packed bitstream\nCodec ID : XVID\nCodec ID/Hint : XviD\nDuration : 1h 28mn\nBit rate : 2 069 Kbps\nWidth : 720 pixels\nHeight : 304 pixels\nDisplay aspect ratio : 2.35:1\nFrame rate : 23.976 fps\nColor space : YUV\nChroma subsampling : 4:2:0\nBit depth : 8 bits\nScan type : Progressive\nCompression mode : Lossy\nBits/(Pixel*Frame) : 0.394\nStream size : 1.27 GiB (94%)\nWriting library : XviD 64\n\nAudio\nID : 1\nFormat : MPEG Audio\nFormat version : Version 1\nFormat profile : Layer 3\nMode : Joint stereo\nMode extension : MS Stereo\nCodec ID : 55\nCodec ID/Hint : MP3\nDuration : 1h 28mn\nBit rate mode : Constant\nBit rate : 128 Kbps\nChannel(s) : 2 channels\nSampling rate : 44.1 KHz\nCompression mode : Lossy\nStream size : 80.7 MiB (6%)\nAlignment : Split accross interleaves\nInterleave, duration : 42 ms (1.00 video frame)\nInterleave, preload duration : 500 ms\n\nNotes - Great Video on this rls, Really nice cam, well done that man! - we put our touch on it:p\nAudio, great to have line for this, so thx for that, had a hissing noise so we cleaned up the audio,check sample,\nsounds great now, imo v9 a8.","torrent":{"xt":"urn:btih:03528f8c6736289f597e6648425343bc500086ae","amp;dn":"Ghost+Rider+Spirit+of+Vengeance+2012+TS+XviD-INSPiRAL","amp;tr":["udp%3A%2F%2Ftracker.openbittorrent.com%3A80","udp%3A%2F%2Fopen.demonii.com%3A1337","udp%3A%2F%2Ftracker.coppersurfer.tk%3A6969","udp%3A%2F%2Fexodus.desync.com%3A6969"],"infoHash":"03528f8c6736289f597e6648425343bc500086ae","infoHashBuffer":{"type":"Buffer","data":[3,82,143,140,103,54,40,159,89,126,102,72,66,83,67,188,80,0,134,174]},"announce":[],"urlList":[]}}